<svg xmlns="http://www.w3.org/2000/svg" width="24" height="24" fill="none"><path fill="#2B2B2B" d="M22.4 13.26H3.2v-9a2.563 2.563 0 0 1 .756-1.825l.02-.02a2.585 2.585 0 0 1 2.93-.508 3.955 3.955 0 0 0 .589 4.832l.547.547-1.008 1.008 1.132 1.131 1.007-1.007 5.585-5.585 1.008-1.008L14.634.694l-1.008 1.008-.547-.548A3.954 3.954 0 0 0 8.032.705a4.18 4.18 0 0 0-5.188.579l-.02.02A4.153 4.153 0 0 0 1.6 4.26v9H0v1.6h1.6v1.535c0 .129.02.257.062.38l1.488 4.464a1.199 1.199 0 0 0 1.138.82h.645l-.583 2h1.667l.583-2h10.405l.6 2h1.67l-.6-2h1.037a1.198 1.198 0 0 0 1.138-.82l1.488-4.465a1.2 1.2 0 0 0 .062-.38V14.86H24v-1.6h-1.6ZM8.626 2.286a2.351 2.351 0 0 1 3.322 0l.547.547-3.321 3.322-.548-.548a2.351 2.351 0 0 1 0-3.321ZM20.8 16.33l-1.377 4.13H4.577L3.2 16.33v-1.47h17.6v1.47Z"/></svg>