<svg xmlns="http://www.w3.org/2000/svg" width="20" height="23" fill="none"><path fill="#F11" d="M12.408 11.253c.26-.427.527-.867.793-1.322.887-1.52 1.05-3.053.484-4.554-1.142-3.03-4.96-4.875-5.843-5.17L7.221 0l-.97 1.94.468.382c.005.005.525.459.56 1.147.03.588-.293 1.223-.958 1.888-.462.462-.968.908-1.505 1.381C2.56 8.726 0 10.98 0 15.244a7.145 7.145 0 0 0 2.194 5.201 7.277 7.277 0 0 0 5.09 2.06h4.347l-.537-1.088c-2.18-4.426-.638-6.958 1.314-10.164Z"/><path fill="#F11" d="m19.823 15.195-.04-.15c-.545-1.998-3.561-4.567-3.903-4.854l-.688-.575-.45.775c-1.027 1.765-1.908 3.375-2.292 5.202-.438 2.083-.143 4.2.902 6.473l.201.44h.514a5.909 5.909 0 0 0 4.687-2.29 5.814 5.814 0 0 0 1.069-5.02Z"/></svg>