<svg xmlns="http://www.w3.org/2000/svg" width="124" height="50" fill="none"><circle cx="25" cy="25" r="25" fill="#3A0CA3"/><g fill="#fff" clip-path="url(#a)"><path d="m36.715 22.165-11.25-9a.75.75 0 0 0-.938 0l-11.25 9a.75.75 0 0 0 .473 1.335h1.5v12.75A.75.75 0 0 0 16 37h15v-1.5h-3v-6.75a.75.75 0 0 0-.75-.75h-4.5a.75.75 0 0 0-.75.75v6.75h-5.25v-12H29.5V22H15.887L25 14.71 34.112 22H34a.75.75 0 0 0-.75.75v4.5h1.5V23.5h1.5a.75.75 0 0 0 .465-1.335ZM23.5 29.5h3v6h-3v-6Z"/><path d="m31.75 32.943-.968-.968-1.057 1.057 1.5 1.5a.75.75 0 0 0 1.057 0l4.5-4.5-1.057-1.057-3.975 3.968Z"/></g><path fill="#1E1E1E" d="M66.78 22.38c0 1.26-.7 2.08-2.26 2.08h-2.34v-4.1h2.34c1.56 0 2.26.78 2.26 2.02Zm-7.4-4.34V32h2.8v-5.44h1.32L66.58 32h3.24l-3.34-5.66c2.24-.6 3.18-2.32 3.18-4.02 0-2.34-1.68-4.28-5.04-4.28h-5.24Zm17.572 5c1.44 0 2.6.92 2.64 2.38h-5.26c.22-1.52 1.28-2.38 2.62-2.38Zm5.26 5.48h-3.02c-.36.74-1.02 1.34-2.22 1.34-1.4 0-2.52-.92-2.66-2.56h8.1c.06-.36.08-.72.08-1.08 0-3.3-2.26-5.48-5.46-5.48-3.28 0-5.56 2.22-5.56 5.72 0 3.48 2.34 5.72 5.56 5.72 2.74 0 4.58-1.62 5.18-3.66Zm9.764-7.6h-8.04v2.3h4.82l-4.84 6.52V32h8.12v-2.3h-4.94l4.88-6.52v-2.26ZM94.204 32h2.8V20.92h-2.8V32Zm1.42-12.4c.98 0 1.72-.72 1.72-1.64 0-.92-.74-1.64-1.72-1.64-1 0-1.72.72-1.72 1.64 0 .92.72 1.64 1.72 1.64ZM99.771 32h2.8V17.2h-2.8V32Zm5.566 0h2.8V17.2h-2.8V32Zm4.846-5.58c0 3.46 2.24 5.76 5.04 5.76 1.76 0 3.02-.84 3.68-1.8V32h2.82V20.92h-2.82v1.58c-.66-.92-1.88-1.76-3.66-1.76-2.82 0-5.06 2.22-5.06 5.68Zm8.72.04c0 2.1-1.4 3.26-2.94 3.26-1.5 0-2.92-1.2-2.92-3.3 0-2.1 1.42-3.22 2.92-3.22 1.54 0 2.94 1.16 2.94 3.26Z"/><defs><clipPath id="a"><path fill="#fff" d="M13 13h24v24H13z"/></clipPath></defs></svg>